<?xml version="1.0" encoding="utf-8"?>
<!-- Generator: Adobe Illustrator 25.2.1, SVG Export Plug-In . SVG Version: 6.00 Build 0)  -->
<svg version="1.0" id="Layer_1" xmlns="http://www.w3.org/2000/svg" xmlns:xlink="http://www.w3.org/1999/xlink" x="0px" y="0px"
	 viewBox="0 0 640 260" enable-background="new 0 0 640 260" xml:space="preserve">
<g>
	<path id="_0402-chef" fill="#FFFFFF" d="M111.09,238.63c-0.32-0.2-0.69-0.81-0.98-0.99c-0.37-0.23-1.04-0.2-1.47-0.49
		c-0.78-0.53-1.33-1.47-1.96-1.96c-0.96-0.74-1.64-1.24-2.45-1.96c-2.09-1.84-4.05-3.8-5.89-5.89c-0.69-0.79-1.21-1.49-1.96-2.45
		c-1.44-1.87-2.75-3.84-3.93-5.89c-4.49-7.99-7.17-16.86-7.85-26c-0.01-10.37,0.98-20.73,2.94-30.91c-0.48-0.67-1.72-0.59-2.95-0.5
		c-1.24,0.08-2.43,0.16-2.93-0.47c-2.43,0.3-3.14-1.11-4.91-1.47c0.09-0.67-0.33-1.3-0.98-1.47c-1.59-5.2,0.64-10.36,1.96-14.23
		c1.72-1.06,1.95-3.61,3.93-4.41c0.95-1.82,3.24-2.33,4.91-3.44c2.23-0.23,4.47,0.29,6.38,1.47c-0.05-1.74-1.81-1.78-1.47-3.92
		c0.68-2.74,2.02-5.27,3.92-7.36c-0.33-2.78,0.88-4.02,0.98-6.38c1.34-1.76,2.2-4.01,3.44-5.89c1.76-1.21,3.53-2.66,2.45-5.4
		c1.52,0.12,0.83,2.44,2.94,1.96c1.44-0.42-0.64-1.24,0-2.45c-0.5-0.65-0.48-1.82-0.98-2.46c-0.32-1.68-0.82-3.33-1.47-4.91
		c-0.76-3.49-1.74-6.94-2.94-10.31c-1.18-7.49-4.38-12.96-4.42-21.58c1.06-1.71,2.02-3.55,5.4-2.94c2.73,2.02,3.26,6.23,3.93,10.3
		c0.97,1.63,1.47,3.5,1.47,5.4c1.37,0.92,0.95,3.63,1.96,4.91c1.98,7.34,4.13,14.52,6.38,21.59c13.88-6.57,31.3-9.59,52.5-8.83
		c9.98,0.72,19.85,2.53,29.44,5.4c1.77-0.35,0.52-3.74,1.47-4.91c0.24-1.65,0.56-3.29,0.98-4.91c0.62-3.3,1.29-6.56,1.96-9.81
		c0.89-3.04,1.46-6.39,2.45-9.31c0.94-2.99,1.55-6.3,5.89-5.89c3.68,0.49,3.14,5.47,1.96,8.34c-1.18,2.87-1.42,6.75-2.45,9.81
		c-0.44,3.64-1.58,6.6-1.96,10.3c-0.55,1.75-0.88,3.56-0.98,5.4c-1.72,1.55,1.72,2.38,0,3.93c0.61,0.5,1.1,0.25,1.68-0.01
		c0.7-0.4,1.56-0.4,2.25,0.01c1.9,2.19,3.68,4.5,5.4,6.87c0.69,1.38,1.51,2.7,2.45,3.93c0.32,1.52,0.81,3,1.47,4.41
		c0.14,1.77-0.9,2.36-0.98,3.93c0.94,2.67,1.28,5.52,0.98,8.34c0.04,0.68,0.85,0.59,1.67,0.49c0.42-0.08,0.86-0.08,1.28,0
		c0.38-0.08,0.78,0.02,1.08,0.28c0.38,0.32,0.91,0.39,1.37,0.2c2.22,1.34,4.35,2.81,6.38,4.42c0.4,1.27,1.07,2.44,1.96,3.43
		c0.39,2.1,0.55,4.24,0.49,6.38c-0.58,0.08-0.4,0.89-0.49,1.47c-1.56,2.07-3.57,3.75-5.89,4.91c2.3,11.63,3.28,23.48,2.94,35.33
		c-2.02,18.25-10.24,30.32-20.11,40.72c-11.45,10.67-26.12,17.23-41.71,18.64c-1.82,0.07-3.62,0.1-5.39,0.1
		C141.69,251.49,124.19,246.96,111.09,238.63z M108.64,128.24c-0.59,1.77-1.09,3.57-1.47,5.39c-0.9,1.53-1.56,3.18-1.96,4.91
		c-1.15,3.6-2.05,7.43-3.44,10.79c-1.99,7.33-4.68,13.96-5.89,22.07c-0.17,5.88-0.77,11.34-0.49,17.66
		c1.03,7.31,2.17,14.51,4.91,20.12c1.82,2.27,2.93,5.26,4.91,7.36c1.58,2.94,3.64,5.12,4.9,7.85c3.07,1.84,5.54,4.28,8.83,5.89
		c1.59,0.9,3.23,1.72,4.91,2.45c1.52,1.09,3.83,1.4,5.4,2.45c8.13,2.58,16.52,4.23,25.02,4.9h14.23c7.89-1.15,15.52-3.63,22.57-7.35
		c3.13-2.76,6.55-5.23,9.81-7.85c5.71-5.86,10.35-12.67,13.74-20.12c3.69-7.59,4.82-17.74,5.4-28.46
		c-0.07-8.69-1.56-17.31-4.42-25.51c-1.29-3.51-2.76-6.95-4.42-10.3c-0.58-1.87-1.8-3.11-2.45-4.91c-0.62-1.99-2.39-2.83-2.94-4.9
		c-2.24-0.47-4.4-1.3-6.38-2.45c-2.74-4.11-4.43-8.83-4.91-13.74c-8.1-1.39-15.61-3.36-25.02-3.44c-1.83,1.45-4.35,1.64-6.38,0.49
		c-2.08,1.91-4.62,3.26-7.36,3.93c-2.83,0.37-3.43-1.48-5.4-1.96c-4.44,3.58-6.13,9.89-14.23,9.81c-3.57-0.03-2.93-4.27-5.89-4.9
		c0.17,0.66-0.4,0.57-0.98,0.49c-0.58-0.09-1.16-0.17-0.98,0.49c-1,0.14-0.96,1.33-1.96,1.47c-0.71,1.42-2.36,1.89-3.44,2.94
		c-2.43,2.17-5.26,3.84-8.34,4.91c-1.1,0.29-2.26,0.18-3.28-0.31c-0.53-0.26-1.1-0.42-1.68-0.48
		C109.22,127.93,108.9,128.04,108.64,128.24z M86.07,142.47c-3.11,3.33-4.86,7.71-4.9,12.27c1.35,0.56,2.83,0.73,4.27,0.49
		c0.87-0.06,1.73-0.06,2.6,0c0.86-4.32,2.01-8.59,3.44-12.76c-0.71-0.51-1.56-0.79-2.43-0.8C88,141.73,86.99,142,86.07,142.47
		L86.07,142.47z M220.99,142.96c0.65,1.32,1.32,2.61,1.96,3.93c0.65,1.32,0.72,3.2,2.45,3.44c1.33-0.61,1.64-1.61,1.47-3.44
		c-0.03-0.32,0.02-0.66,0-0.98c-1.33-2.17-3.43-3.75-5.89-4.41C220.8,142.19,220.4,142.32,220.99,142.96L220.99,142.96z
		 M209.21,124.81c1.61-0.2,3.04-1.09,3.93-2.45c-1.3-0.99-1.19-3.39-2.94-3.93C210.21,120.89,208.57,121.71,209.21,124.81
		L209.21,124.81z M116,118.43c-0.42,1.18-0.91,2.33-1.47,3.44c2.7-0.97,5.08-2.67,6.87-4.91C119.17,117.02,118.02,118.15,116,118.43
		L116,118.43z M209.21,116.46C208.74,118.5,210.68,116.56,209.21,116.46c0.16-0.7,0.04-0.93-0.13-0.93
		C208.76,115.54,208.25,116.4,209.21,116.46L209.21,116.46z M132.68,223.91c-2.37-2.53-5.73-4.07-5.89-8.83
		c-0.36-1.34,0.98-0.99,0.98-1.96c3.62-0.02,3.94,3.26,6.38,4.42c2.39,0.88,3.94,2.6,6.87,2.95c4.22,2.32,10.53,2.56,16.2,3.43
		h11.77c1.83-0.39,3.63-0.88,5.4-1.47c2.6-1.14,4.94-2.81,6.87-4.91c2.16-1.21,3.9-5.12,6.87-3.92c0.73,6.78-3.29,8.81-5.89,12.26
		c-2.52,0.59-3.32,2.9-6.38,2.94c-1.52,1.42-4.83,1.06-6.87,1.97c-1.4,0.04-2.77,0.07-4.13,0.07
		C151.81,230.85,140.88,228.75,132.68,223.91L132.68,223.91z M147.4,199.38c-0.28-1.24,0.09-2.54,0.98-3.44
		c0.4-0.09,0.49-0.49,0.98-0.49c1.12,0.04,2.3,0.02,3.48,0c4.45-0.06,8.93-0.13,10.26,2.94c0.43,1.9-1.2,1.75-1.47,2.94
		c-0.17,0.47-0.81,0.45-1.46,0.44c-0.69-0.01-1.38-0.03-1.48,0.54c-0.79,0-1.58,0.02-2.36,0.02
		C152.36,202.34,148.67,202.07,147.4,199.38L147.4,199.38z M131.2,193c-0.11-0.49-0.71-0.48-1.32-0.48c-0.22,0.01-0.43,0-0.65-0.02
		c-2.97-1.58-6.1-4.59-4.42-9.31c1.12-1.16,1.47,0.61,1.96,1.47c0.87,0.44,1.43,1.19,2.45,1.47c0.57-0.08,0.87,0.11,0.98,0.49h4.9
		c4.24-1.82,6.36-5.74,10.3-7.85h4.42c1.17,1.13,2.79,1.79,2.94,3.93c-0.51,4.73-4.07,6.4-8.34,7.36c-2.44,1.4-5.09,2.39-7.85,2.94
		L131.2,193z M164.56,192.51c-0.11-0.48-0.71-0.48-1.31-0.47c-0.22,0.01-0.43,0-0.65-0.02c-1.31-1.14-3.22-1.69-4.42-2.94
		c-1.76-3.77-0.76-8.79,2.94-9.81c1.96-0.09,3.75,1.1,4.42,2.94c0.94-0.19,1.9,0.19,2.45,0.98c0.87,0.27,2.04,0.25,2.45,0.98
		c1.65-0.07,3.3,0.09,4.91,0.49c4.93-0.46,8.53-2.26,10.3-5.89c0.44,0.22,0.87,0.43,0.98,0.98c1.3,2-0.13,3.92-0.98,5.4
		c-0.92,1.49-2.09,2.81-3.44,3.92c-0.16,0.04-0.33,0.04-0.48-0.01c-0.22-0.04-0.43-0.07-0.5,0.01c-0.3,0.36-0.62,0.69-0.98,0.98
		c-0.15,0.03-0.31,0.02-0.46-0.01c-0.23-0.03-0.46-0.06-0.52,0.01c-0.98,1.2-2.63,0.96-5.4,1.47c-2.37,0.62-4.8,0.99-7.25,1.11
		C165.94,192.64,165.25,192.6,164.56,192.51L164.56,192.51z M152.3,178.77c-3.38-2.18-7.38-3.74-8.83-7.85
		c0.26-5.3,2.88-8.24,3.92-12.76c1.46-3.94,2.26-8.54,3.93-12.27c0.33-0.42,0.5-0.94,0.49-1.47h0.98c2.4,0.17,2.17,4.07,1.47,5.89
		c-0.01,2.37-0.51,4.71-1.47,6.87c-0.61,4.79-2.88,7.92-3.93,12.27c1.13,1.97,3.99,2.23,5.89,3.43c3.74-0.31,6.77,0.1,7.36,2.94
		c0.02,2.75-2.3,3.48-4.95,3.48C155.52,179.27,153.9,179.09,152.3,178.77L152.3,178.77z M174.87,152.28
		c1.49-0.85,3.27-1.03,4.91-0.49c3.22,3.01,2.83,12.98-2.45,13.25C171.93,164.43,172.18,155.68,174.87,152.28L174.87,152.28z
		 M126.3,163.57c-3.14-4.12-0.91-14.55,5.4-12.27c3.96,2.96,3.26,13-2.48,13C128.2,164.27,127.21,164.02,126.3,163.57L126.3,163.57z
		 M118.94,146.39c-1.74-6.6,5.99-7.66,10.79-9.31c1.11,0.04,2.22-0.06,3.3-0.28c1.33-0.29,2.7-0.35,4.06-0.2
		c1.21,0.91,3.54,0.71,3.93,2.45c0.13,2.41-2.88,1.7-3.93,2.94c-3.42-0.15-5.72,0.82-8.83,0.98c-1.6,0.75-3.23,1.41-4.91,1.96
		c-1.4,0.39-2.16,1.77-3.39,1.77C119.6,146.69,119.25,146.58,118.94,146.39L118.94,146.39z M181.25,142.46
		c-1.32-0.12-2.64-0.12-3.95,0c-3.28,0.19-6.57,0.37-6.84-2.45c-0.2-4.29,5.35-2.83,8.34-3.93c1.06,0.54,2.27,0.72,3.44,0.5
		c0.65-0.04,1.3-0.04,1.95,0c1.9,1.21,4.76,1.46,5.89,3.44c1.99,1.05,2.62,4.61,0.49,5.89
		C186.78,145.44,184.86,143.11,181.25,142.46L181.25,142.46z M117.47,66.42c-1.19-3.88-4.55-5.59-4.42-10.79
		c0.81-0.82,1.28-1.99,2.94-1.97c2.85-0.23,3.42,1.81,4.42,3.44c0.97,1.48,1.98,2.93,2.94,4.42c1.44,3.46,4.49,5.32,4.91,9.81
		c-0.9,0.73-1.21,2.05-2.45,2.45h-0.13C120.49,73.79,119.68,69.4,117.47,66.42L117.47,66.42z M79.2,72.8
		c-0.98-0.98-3.06-0.86-3.93-1.96c-1.34-0.46-2.09-1.5-3.44-1.96c-2.04-1.72-3.78-3.74-5.89-5.4c-1.52-3.22-3.45-6.03-3.44-10.8
		c-0.01-5.25,2.29-8.17,3.93-11.77c6.72-7.01,15.9-11.58,29.93-11.29c-0.15-0.59,0.81-0.24,0.98-0.49c0.25-0.36-0.13-2.3,0.98-2.45
		c-0.12-1.76,1.47-1.8,1.47-3.44c2-1.59,3.81-3.4,5.4-5.4c2.36-0.59,3.28-2.6,5.89-2.95c1.26-1.69,4.5-1.38,5.89-2.94
		c4.86-1.09,9.77-1.91,14.72-2.45c11.72-0.65,23.46,0.5,34.82,3.43c6.1,1.68,12.23,3.36,16.68,6.87c0.83,0.23,0.97-0.24,1.11-0.71
		c0.12-0.42,0.24-0.83,0.85-0.76c0.14-1,1.33-0.96,1.47-1.96c1.5-0.7,2.83-1.7,3.93-2.94c4.79-2.39,9.92-4.04,15.21-4.91h8.83
		c6.9,0.88,13.39,3.78,18.64,8.34c8.13,8.56,8.55,21.85,0.98,30.91c0.62,2.09,1.11,4.22,1.47,6.38c-0.46,6.9-3.69,11.03-6.87,15.21
		c-1.52,0.12-1.91,1.36-2.94,1.96c-0.79,0.68-2.53,0.4-2.94,1.47c-0.9-0.08-1.81-0.08-2.7,0.02c-1.06,0.11-2.12,0.11-3.18-0.02
		c-1.42-0.13-2.77-0.64-3.93-1.47c-0.72-0.63-0.54-1.16-1.47-1.96c2.13-3.44,8.63-2.49,11.29-5.4c2.65-2.75,5.49-5.3,5.4-10.79
		c-0.98-0.5-2.09-0.69-3.18-0.54c-1.71,0.01-3.44,0.02-3.69-1.42c-1.28-2.3,1.13-4.61,2.45-5.89c0.87-2.23,2.78-3.43,3.93-5.4
		c0.36-1.51,0.85-2.99,1.47-4.42v-5.39c-1.8-6.54-7.16-9.52-13.74-11.29h-10.8c-6.16,0.74-12.14,2.57-17.66,5.4
		c0.13,2.91,0.27,5.83-1.96,6.38c-2.83,0.37-2.68-2.23-4.42-2.94c-0.73-1.73-2.79-2.12-3.92-3.44c-4.82-1.25-9.75-2.07-14.72-2.45
		c-9.56-1.61-19.26-2.27-28.95-1.96c-5.85,0.37-11.63,1.53-17.17,3.44c-3.91,1.96-7.54,4.44-10.79,7.36
		c-0.44,2.4,2.6,1.32,1.96,3.93c-1.46,0-1.67,1.27-2.94,1.47c-0.86,0.45-2.45,0.17-2.95,0.98c-2.72,0.05-4.51,1.04-7.36,0.98
		c-4.53,0.63-8.98,1.79-13.25,3.44c-3.31,1.55-6.18,3.91-8.34,6.87c-0.11,1.35-0.44,2.68-0.98,3.93c-0.36,1.5,0.85,1.44,0.49,2.95
		c0.77,3.49,3.24,5.26,4.91,7.85c0.6-0.13,1.21,0.17,1.47,0.73c0.26,0.56,0.87,0.87,1.47,0.74c0.17,1.3,2.5,0.45,2.94,1.47
		c1.16-0.64,3.39-0.2,4.42-0.98c0.9,0.13,1.08-0.45,1.27-1.03c0.2-0.66,0.42-1.32,1.67-0.93c1.62,1.67,0.4,4.51,0,6.87
		c-1.68,2.13-4.57,3.05-8.39,3.05C80.83,72.91,80.04,72.87,79.2,72.8L79.2,72.8z M178.31,65.93c-0.84-6.58,2.36-12.88,4.42-18.15
		c0.12-0.53,0.98-0.33,0.98-0.98c0.57-0.08,0.87,0.11,0.98,0.49c2.12-0.09,1.69,4.21,0.98,5.4c-0.19,1.87-0.68,3.69-1.47,5.4
		c-0.92,3.57-1.12,7.86-5.61,7.86L178.31,65.93z M149.85,54.15c-0.99-2.86-1.64-5.82-1.96-8.83c-0.06-0.88,0.61-1.03,0.49-1.96h2.94
		c1.5,2.26,2.12,5.41,3.44,7.85c0.1,2.93,2.28,7.05,0,9.31c-0.3,0.05-0.6,0.07-0.89,0.07C150.37,60.61,150.62,56.87,149.85,54.15
		L149.85,54.15z"/>
	<g>
		<path fill="#FFFFFF" d="M280.33,37.53h23.9c8.31,0,14.37,1.38,18.18,4.15c3.81,2.77,5.72,7.02,5.72,12.76v4.52
			c0,7.63-3.52,12.46-10.56,14.49v0.21c3.91,0.84,6.67,2.56,8.28,5.15c1.61,2.59,2.42,6.06,2.42,10.4v12.92c0,2.1,0.1,3.8,0.29,5.09
			c0.19,1.3,0.68,2.57,1.46,3.83H313.6c-0.59-1.19-0.98-2.31-1.17-3.36c-0.2-1.05-0.29-2.94-0.29-5.67V88.57
			c0-3.36-0.76-5.71-2.27-7.04c-1.52-1.33-4.13-2-7.84-2h-5.57v31.51h-16.13V37.53z M302.32,69.04c3.23,0,5.64-0.59,7.26-1.79
			c1.61-1.19,2.42-3.19,2.42-5.99v-5.67c0-2.66-0.66-4.59-1.98-5.78c-1.32-1.19-3.4-1.79-6.23-1.79h-7.33v21.01H302.32z"/>
		<path fill="#FFFFFF" d="M339.41,37.53h43.98v10.5h-27.86v19.43h22.14v10.5h-22.14v22.58h27.86v10.5h-43.98V37.53z"/>
		<path fill="#FFFFFF" d="M397.68,107.38c-4.06-3.15-6.08-7.6-6.08-13.34V54.54c0-5.74,2.03-10.19,6.08-13.34
			c4.05-3.15,9.94-4.73,17.67-4.73c7.72,0,13.61,1.58,17.67,4.73c4.05,3.15,6.08,7.6,6.08,13.34v7.77h-15.25v-8.51
			c0-4.55-2.69-6.83-8.06-6.83c-5.38,0-8.06,2.28-8.06,6.83v41.07c0,4.48,2.69,6.72,8.06,6.72c5.37,0,8.06-2.24,8.06-6.72V83.64
			h15.25v10.4c0,5.74-2.03,10.19-6.08,13.34c-4.06,3.15-9.95,4.73-17.67,4.73C407.63,112.1,401.74,110.53,397.68,107.38z"/>
		<path fill="#FFFFFF" d="M448.77,37.53h16.13v73.52h-16.13V37.53z"/>
		<path fill="#FFFFFF" d="M476.92,37.53h23.75c8.01,0,14.02,1.54,18.03,4.62c4.01,3.08,6.01,7.6,6.01,13.55v7.25
			c0,5.95-2,10.47-6.01,13.55c-4.01,3.08-10.02,4.62-18.03,4.62h-7.62v29.93h-16.13V37.53z M500.67,70.61
			c2.64,0,4.62-0.53,5.94-1.58s1.98-2.84,1.98-5.36v-8.72c0-2.52-0.66-4.31-1.98-5.36c-1.32-1.05-3.3-1.58-5.94-1.58h-7.62v22.58
			H500.67z"/>
		<path fill="#FFFFFF" d="M533.51,37.53h43.98v10.5h-27.86v19.43h22.14v10.5h-22.14v22.58h27.86v10.5h-43.98V37.53z"/>
		<path fill="#FFFFFF" d="M283.55,233.36c-4.01-3.19-6.01-7.75-6.01-13.71v-4.2h15.25v5.04c0,4.76,2.79,7.14,8.36,7.14
			c2.74,0,4.81-0.58,6.23-1.73c1.42-1.16,2.13-3.03,2.13-5.62c0-3.08-0.98-5.79-2.93-8.14c-1.96-2.34-5.57-5.16-10.85-8.46
			c-6.65-4.2-11.29-8-13.93-11.4c-2.64-3.4-3.96-7.23-3.96-11.5c0-5.81,2.05-10.31,6.16-13.5c4.1-3.19,10.07-4.78,17.89-4.78
			c7.72,0,13.56,1.59,17.52,4.78c3.96,3.19,5.94,7.76,5.94,13.71v3.05h-15.25v-3.78c0-2.52-0.68-4.36-2.05-5.51
			c-1.37-1.16-3.37-1.73-6.01-1.73c-5.38,0-8.06,2.35-8.06,7.04c0,2.66,1,5.15,3.01,7.46c2,2.31,5.64,5.11,10.92,8.4
			c6.74,4.2,11.38,8.02,13.93,11.45c2.54,3.43,3.81,7.46,3.81,12.08c0,6.02-2.08,10.64-6.23,13.86c-4.16,3.22-10.19,4.83-18.11,4.83
			C293.47,238.14,287.56,236.55,283.55,233.36z"/>
		<path fill="#FFFFFF" d="M334.86,163.57h16.13v29.93h17.3v-29.93h16.13v73.52h-16.13v-33.08h-17.3v33.08h-16.13V163.57z"/>
		<path fill="#FFFFFF" d="M408.9,163.57h21.84l16.71,73.52h-16.13l-2.93-14.6v0.21h-18.33l-2.93,14.39h-14.95L408.9,163.57z
			 M426.49,212.72l-7.18-36.34h-0.29l-7.04,36.34H426.49z"/>
		<path fill="#FFFFFF" d="M455.22,163.57h23.9c8.31,0,14.37,1.38,18.18,4.15c3.81,2.77,5.72,7.02,5.72,12.76V185
			c0,7.63-3.52,12.46-10.56,14.49v0.21c3.91,0.84,6.67,2.56,8.28,5.15c1.61,2.59,2.42,6.06,2.42,10.4v12.92c0,2.1,0.1,3.8,0.29,5.09
			c0.19,1.3,0.68,2.57,1.47,3.83H488.5c-0.59-1.19-0.98-2.31-1.17-3.36c-0.2-1.05-0.29-2.94-0.29-5.67v-13.44
			c0-3.36-0.76-5.71-2.27-7.04c-1.52-1.33-4.13-2-7.84-2h-5.57v31.51h-16.13V163.57z M477.22,195.08c3.23,0,5.64-0.59,7.26-1.79
			c1.61-1.19,2.42-3.19,2.42-5.99v-5.67c0-2.66-0.66-4.59-1.98-5.78c-1.32-1.19-3.4-1.79-6.23-1.79h-7.33v21.01H477.22z"/>
		<path fill="#FFFFFF" d="M514.31,163.57h43.98v10.5h-27.86v19.43h22.14v10.5h-22.14v22.58h27.86v10.5h-43.98V163.57z"/>
	</g>
</g>
</svg>
